<svg width="16" height="16" viewBox="0 0 16 16" xmlns="http://www.w3.org/2000/svg">
  <!-- Ordner (horizontal gespiegelt) -->
  <g transform="translate(16,0) scale(-1,1)">
    <path d="
      M3 7
      a1 1 0 0 1 1-1
      h2.5
      l.6-.6
      a1 1 0 0 1 .7-.29
      H12.5
      a1.25 1.25 0 0 1 1.25 1.25
      v4.75
      A1.25 1.25 0 0 1 12.5 12.5
      H4
      a1 1 0 0 1-1-1
      Z"
          fill="#F4C84A" stroke="#C89B2A" stroke-width=".4"/>
    <path d="M3.75 7.3H12.75" stroke="#FFFFFF" stroke-opacity=".18" stroke-linecap="round"/>
  </g>

  <!-- Netzwerk: umgedrehtes T unter dem Ordner -->
  <g fill="none" stroke="#0066cc" stroke-width="1" stroke-linecap="round">
    <path d="M8 12.5v1"/>
    <path d="M5 13.5h6"/>
  </g>
  <circle cx="8" cy="13.5" r="1" fill="#0066cc"/>
  <circle cx="8" cy="13.5" r="0.45" fill="black"/>
</svg>
